<svg xmlns="http://www.w3.org/2000/svg" width="112.394" height="27.632" viewBox="0 0 112.394 27.632">
  <g id="Group_262" data-name="Group 262" transform="translate(0.001 0)">
    <path id="Path_368" data-name="Path 368" d="M6531.207,1535.911l-2.58-4.99a.373.373,0,0,0-.379-.241.39.39,0,0,0-.413.241l-2.581,4.99h-5.54l4.542-7.467-6.16-20.164h6.022l3.751,16.586a.349.349,0,0,0,.378.31.367.367,0,0,0,.345-.31l3.75-16.586h6.022l-6.194,20.164,4.576,7.467Z" transform="translate(-6425.972 -1508.279)" fill="#fff"/>
    <path id="Path_369" data-name="Path 369" d="M6427.479,1508.28v8.655l.667,11.472h-.387l-1.3-6.931-3.449-13.2h-6.9V1535.9h5.242v-9.044l-.7-11.329h.386l1.233,6.72,3.59,13.654h6.86V1508.28Z" transform="translate(-6380.182 -1508.279)" fill="#fff"/>
    <path id="Path_370" data-name="Path 370" d="M6461.467,1508.28l-.1,0a8.015,8.015,0,0,0-7.223,4.913l-.012.031a8.693,8.693,0,0,0-.6,3.13V1535.9h5.806v-9.817h5.279V1521.3h-5.279v-7.847h6.687v-5.174Z" transform="translate(-6396.982 -1508.279)" fill="#fff"/>
    <path id="Path_371" data-name="Path 371" d="M6482.013,1530.764V1508.28h-5.807V1535.9h11.648v-5.138Z" transform="translate(-6407.163 -1508.279)" fill="#fff"/>
    <path id="Path_372" data-name="Path 372" d="M6502.452,1508.28V1535.9h5.807V1508.28Z" transform="translate(-6418.947 -1508.279)" fill="#fff"/>
    <path id="Path_373" data-name="Path 373" d="M6368.317,1508.278v.052a8.963,8.963,0,0,0-4.691,4.805h-2.174v0h-4.743v8.168h5.281v4.785h-5.281v9.82H6350.9v-27.625Z" transform="translate(-6350.903 -1508.278)" fill="#fff"/>
    <path id="Path_374" data-name="Path 374" d="M6377.247,1523.671c-.006.137-.01.273-.01.409v-.409Z" transform="translate(-6362.727 -1515.189)" fill="#fff"/>
    <path id="Path_375" data-name="Path 375" d="M6394.975,1516.773a8.873,8.873,0,0,0-17.728,0c-.006.137-.01.273-.01.409v18.732h5.806v-10.4a8.925,8.925,0,0,0,6.136,0v10.4h5.806v-18.732C6394.984,1517.046,6394.98,1516.91,6394.975,1516.773Zm-8.865,3.428a3.02,3.02,0,1,1,3.021-3.019A3.02,3.02,0,0,1,6386.11,1520.2Z" transform="translate(-6362.727 -1508.292)" fill="#fff"/>
    <path id="Path_376" data-name="Path 376" d="M6377.247,1523.671c-.006.137-.01.273-.01.409v-.409Z" transform="translate(-6362.727 -1515.189)" fill="#fff"/>
    <path id="Path_377" data-name="Path 377" d="M6409.438,1523.671v.409c0-.136,0-.273-.01-.409Z" transform="translate(-6377.181 -1515.189)" fill="#fff"/>
    <path id="Path_378" data-name="Path 378" d="M6466.025,1508.383v5.072h-6.687v7.847h5.279v4.789h-5.277v9.82h-5.809v-19.555a8.693,8.693,0,0,1,.6-3.13l.012-.031a8.015,8.015,0,0,1,7.223-4.913l.1,0h4.33c.076,0,.152,0,.227,0C6466.025,1508.315,6466.025,1508.35,6466.025,1508.383Z" transform="translate(-6396.982 -1508.279)" fill="#fff"/>
  </g>
</svg>
