<?xml version="1.0" encoding="UTF-8"?><svg id="Laag_1" xmlns="http://www.w3.org/2000/svg" viewBox="0 0 184.61 45.39"><defs><style>.cls-1{fill:#440873;}</style></defs><path class="cls-1" d="M172.85,45.39l-4.24-8.2c-.09-.26-.35-.42-.62-.4-.29-.04-.57.13-.68.4l-4.24,8.2h-9.1l7.46-12.26L151.32.01h9.89l6.16,27.24c.03.31.31.54.62.51.29-.01.52-.23.56-.51L174.72.01h9.89l-10.17,33.12,7.52,12.26h-9.1Z"/><path class="cls-1" d="M77.69.01v14.22l1.1,18.84h-.63l-2.14-11.38L70.35.02h-11.33v45.37h8.61v-14.85l-1.15-18.61h.63l2.02,11.04,5.9,22.43h11.27V.02h-8.62Z"/><path class="cls-1" d="M105.92.01h-.16c-5.2.11-9.85,3.27-11.86,8.07l-.02.05c-.65,1.64-.98,3.38-.99,5.14v32.1h9.54v-16.12h8.67v-7.86h-8.67v-12.89h10.98V0h-7.49Z"/><path class="cls-1" d="M122.94,36.94V0h-9.54v45.37h19.13v-8.44h-9.59Z"/><path class="cls-1" d="M137.16.01v45.37h9.54V.01h-9.54Z"/><path class="cls-1" d="M28.61,0v.08c-3.49,1.53-6.26,4.36-7.71,7.89h-3.57s-7.79,0-7.79,0v13.42h8.67v7.86h-8.67v16.13H0V0h28.61Z"/><path class="cls-1" d="M23.85,13.94c0,.22-.02.45-.02.67v-.67h.02Z"/><path class="cls-1" d="M52.97,13.94C52.6,5.9,45.78-.32,37.74.05c-7.52.35-13.54,6.37-13.89,13.89,0,.22-.02.45-.02.67v30.77h9.54v-17.09c3.25,1.19,6.82,1.19,10.08,0v17.09h9.54V14.61c0-.22,0-.45-.02-.67ZM38.41,19.57c-2.74,0-4.96-2.22-4.96-4.96s2.22-4.96,4.96-4.96c2.74,0,4.96,2.22,4.96,4.96,0,2.74-2.22,4.96-4.96,4.96Z"/><path class="cls-1" d="M23.85,13.94c0,.22-.02.45-.02.67v-.67h.02Z"/><path class="cls-1" d="M52.99,13.94v.67c0-.22,0-.45-.02-.67h.02Z"/><path class="cls-1" d="M113.4.18v8.33h-10.98v12.89h8.67v7.86h-8.67v16.13h-9.54V13.27c.01-1.76.35-3.5.99-5.14l.02-.05C95.91,3.28,100.56.12,105.76.01h7.64c0,.05,0,.11,0,.17Z"/></svg>