<svg xmlns="http://www.w3.org/2000/svg" width="184.604" height="45.385" viewBox="0 0 184.604 45.385"><g transform="translate(0.001 0)"><path d="M6539.63,1553.663l-4.239-8.2a.611.611,0,0,0-.622-.4.64.64,0,0,0-.679.4l-4.239,8.2h-9.1l7.46-12.264L6518.1,1508.28h9.891l6.16,27.241a.574.574,0,0,0,.622.509.6.6,0,0,0,.565-.509l6.16-27.241h9.892l-10.174,33.119,7.517,12.264Z" transform="translate(-6366.783 -1508.278)"/><path d="M6434.781,1508.28V1522.5l1.1,18.843h-.635l-2.14-11.384-5.664-21.674h-11.327v45.37h8.609v-14.855l-1.154-18.608h.634l2.025,11.037,5.9,22.426h11.269v-45.37Z" transform="translate(-6357.097 -1508.278)"/><path d="M6466.564,1508.28c-.048,0-.1,0-.157,0a13.165,13.165,0,0,0-11.863,8.07l-.02.051a14.278,14.278,0,0,0-.992,5.141v32.1h9.536v-16.125h8.671v-7.859h-8.671v-12.888h10.983v-8.5Z" transform="translate(-6360.651 -1508.278)"/><path d="M6485.743,1545.21v-36.93h-9.538v45.37h19.132v-8.439Z" transform="translate(-6362.804 -1508.278)"/><path d="M6502.452,1508.28v45.37h9.537v-45.37Z" transform="translate(-6365.297 -1508.278)"/><path d="M6379.506,1508.278v.085a14.722,14.722,0,0,0-7.706,7.893h-3.57v-.007h-7.791v13.415h8.674v7.859h-8.674v16.128H6350.9v-45.373Z" transform="translate(-6350.903 -1508.278)"/><path d="M6377.253,1523.671c-.01.224-.016.449-.016.672v-.672Z" transform="translate(-6353.403 -1509.74)"/><path d="M6406.371,1522.212a14.574,14.574,0,0,0-29.117,0c-.01.224-.016.449-.016.672v30.767h9.536v-17.087a14.656,14.656,0,0,0,10.077,0v17.087h9.536v-30.767C6406.387,1522.661,6406.38,1522.436,6406.371,1522.212Zm-14.561,5.631a4.96,4.96,0,1,1,4.963-4.958A4.961,4.961,0,0,1,6391.81,1527.843Z" transform="translate(-6353.403 -1508.281)"/><path d="M6377.253,1523.671c-.01.224-.016.449-.016.672v-.672Z" transform="translate(-6353.403 -1509.74)"/><path d="M6409.445,1523.671v.672c0-.224-.007-.448-.016-.672Z" transform="translate(-6356.462 -1509.74)"/><path d="M6474.052,1508.449v8.331h-10.983v12.889h8.671v7.865h-8.667v16.128h-9.54v-32.118a14.278,14.278,0,0,1,.992-5.141l.02-.051a13.165,13.165,0,0,1,11.863-8.07c.058,0,.109,0,.157,0h7.112c.125,0,.25,0,.373,0C6474.052,1508.337,6474.052,1508.395,6474.052,1508.449Z" transform="translate(-6360.651 -1508.278)"/></g></svg>